<svg width="1024" height="1024" viewBox="0 0 1024 1024" fill="none" xmlns="http://www.w3.org/2000/svg">
<g clip-path="url(#clip0_1_50)">
<mask id="mask0_1_50" style="mask-type:alpha" maskUnits="userSpaceOnUse" x="0" y="0" width="1024" height="1024">
<rect width="1024" height="1024" rx="102.4" fill="black"/>
</mask>
<g mask="url(#mask0_1_50)">
<g filter="url(#filter0_f_1_50)">
<rect x="-54" y="-54" width="1132" height="1132" fill="url(#paint0_radial_1_50)"/>
</g>
<mask id="mask1_1_50" style="mask-type:alpha" maskUnits="userSpaceOnUse" x="168" y="168" width="688" height="688">
<circle cx="512" cy="512" r="344" transform="rotate(-90 512 512)" fill="black"/>
</mask>
<g mask="url(#mask1_1_50)">
<circle cx="512" cy="512" r="344" fill="url(#paint1_linear_1_50)"/>
</g>
<g filter="url(#filter1_d_1_50)">
<path d="M-399 1126.41L201.272 526.142C209.083 518.332 221.746 518.332 229.556 526.142L829.828 1126.41L215.414 1740.83L-399 1126.41Z" fill="url(#paint2_linear_1_50)"/>
<path d="M-409.607 1115.81L-420.213 1126.41L-409.607 1137.02L204.808 1751.43L215.414 1762.04L226.021 1751.43L840.435 1137.02L851.042 1126.41L840.435 1115.81L240.163 515.536C226.495 501.867 204.334 501.867 190.665 515.536L-409.607 1115.81Z" stroke="white" stroke-width="30"/>
</g>
<g filter="url(#filter2_d_1_50)">
<path d="M196 1126.41L796.272 526.142C804.083 518.332 816.746 518.332 824.556 526.142L1424.83 1126.41L810.414 1740.83L196 1126.41Z" fill="url(#paint3_linear_1_50)"/>
<path d="M185.393 1115.81L174.787 1126.41L185.393 1137.02L799.808 1751.43L810.414 1762.04L821.021 1751.43L1435.43 1137.02L1446.04 1126.41L1435.43 1115.81L835.163 515.536C821.495 501.867 799.334 501.867 785.665 515.536L185.393 1115.81Z" stroke="white" stroke-width="30"/>
</g>
</g>
</g>
<defs>
<filter id="filter0_f_1_50" x="-75.7" y="-75.7" width="1175.4" height="1175.4" filterUnits="userSpaceOnUse" color-interpolation-filters="sRGB">
<feFlood flood-opacity="0" result="BackgroundImageFix"/>
<feBlend mode="normal" in="SourceGraphic" in2="BackgroundImageFix" result="shape"/>
<feGaussianBlur stdDeviation="10.85" result="effect1_foregroundBlur_1_50"/>
</filter>
<filter id="filter1_d_1_50" x="-691.426" y="244.284" width="1813.68" height="1792.97" filterUnits="userSpaceOnUse" color-interpolation-filters="sRGB">
<feFlood flood-opacity="0" result="BackgroundImageFix"/>
<feColorMatrix in="SourceAlpha" type="matrix" values="0 0 0 0 0 0 0 0 0 0 0 0 0 0 0 0 0 0 127 0" result="hardAlpha"/>
<feOffset dy="4"/>
<feGaussianBlur stdDeviation="125"/>
<feComposite in2="hardAlpha" operator="out"/>
<feColorMatrix type="matrix" values="0 0 0 0 0 0 0 0 0 0 0 0 0 0 0 0 0 0 0.25 0"/>
<feBlend mode="normal" in2="BackgroundImageFix" result="effect1_dropShadow_1_50"/>
<feBlend mode="normal" in="SourceGraphic" in2="effect1_dropShadow_1_50" result="shape"/>
</filter>
<filter id="filter2_d_1_50" x="-96.4264" y="244.284" width="1813.68" height="1792.97" filterUnits="userSpaceOnUse" color-interpolation-filters="sRGB">
<feFlood flood-opacity="0" result="BackgroundImageFix"/>
<feColorMatrix in="SourceAlpha" type="matrix" values="0 0 0 0 0 0 0 0 0 0 0 0 0 0 0 0 0 0 127 0" result="hardAlpha"/>
<feOffset dy="4"/>
<feGaussianBlur stdDeviation="125"/>
<feComposite in2="hardAlpha" operator="out"/>
<feColorMatrix type="matrix" values="0 0 0 0 0 0 0 0 0 0 0 0 0 0 0 0 0 0 0.25 0"/>
<feBlend mode="normal" in2="BackgroundImageFix" result="effect1_dropShadow_1_50"/>
<feBlend mode="normal" in="SourceGraphic" in2="effect1_dropShadow_1_50" result="shape"/>
</filter>
<radialGradient id="paint0_radial_1_50" cx="0" cy="0" r="1" gradientUnits="userSpaceOnUse" gradientTransform="translate(512 512) rotate(90) scale(566)">
<stop stop-color="#FF0059"/>
<stop offset="0.5" stop-color="#309BFF"/>
<stop offset="1" stop-color="#74CAFF"/>
</radialGradient>
<linearGradient id="paint1_linear_1_50" x1="512" y1="168" x2="512" y2="856" gradientUnits="userSpaceOnUse">
<stop stop-color="#F5FF82"/>
<stop offset="1" stop-color="#FF0000"/>
</linearGradient>
<linearGradient id="paint2_linear_1_50" x1="-91.7929" y1="819.207" x2="280" y2="1191" gradientUnits="userSpaceOnUse">
<stop stop-color="#9AFF7D"/>
<stop offset="1" stop-color="#5C994B"/>
</linearGradient>
<linearGradient id="paint3_linear_1_50" x1="503.207" y1="819.207" x2="849.5" y2="1165.5" gradientUnits="userSpaceOnUse">
<stop stop-color="#9AFF7D"/>
<stop offset="1" stop-color="#5C994B"/>
</linearGradient>
<clipPath id="clip0_1_50">
<rect width="1024" height="1024" fill="white"/>
</clipPath>
</defs>
</svg>
